<?xml version="1.0" encoding="utf-8"?>
<!-- Generator: Adobe Illustrator 22.1.0, SVG Export Plug-In . SVG Version: 6.00 Build 0)  -->
<svg version="1.1" id="Layer_1" xmlns="http://www.w3.org/2000/svg" xmlns:xlink="http://www.w3.org/1999/xlink" x="0px" y="0px"
	 viewBox="0 0 3276.5 1382.5" style="enable-background:new 0 0 3276.5 1382.5;" xml:space="preserve">
<style type="text/css">
	.st0{fill:#BDBAFA;}
	.st1{fill:#FFFFFF;}
</style>
<g transform="scale(13.824884792626728) translate(10, 10)">
	<g id="SvgjsG1007" transform="matrix(1,0,0,1,NaN,NaN)">
	</g>
	<g id="SvgjsG1008" transform="matrix(0.7155123014549752,0,0,0.7155123014549752,9.2243846713641,4.597309931127075)">
		<path class="st0" d="M49.9,10.3L1.1,33v0.2l48.8,22.6l49-22.7v-0.1L49.9,10.3z M49.9,47.6L18.7,33.1l31.2-14.5l31.2,14.5
			L49.9,47.6z M1.1,59.1v8.2l48.8,22.4l49-22.4V59l-49,22.4L1.1,59.1z M1.1,42.3v8.2l48.8,22.4l49-22.4v-8.2l-49,22.4L1.1,42.3z"/>
	</g>
	<g id="SvgjsG1009" transform="matrix(2.7700836098666475,0,0,2.7700836098666475,95.56786780926792,-10.498625581582932)">
		<path class="st1" d="M12.2,10.7H4.6v3.7h7.4v2.5H4.6V24h-3V8h10.6V10.7z M24.3,12.4l-5.2,13.7c-0.4,1-0.9,1.8-1.5,2.2
			c-0.6,0.5-1.4,0.7-2.2,0.7c-0.1,0-0.3,0-0.4,0s-0.3-0.1-0.5-0.1l-1-2.7c0.2,0.1,0.5,0.2,0.7,0.2c0.2,0.1,0.5,0.1,0.7,0.1
			c0.5,0,0.9-0.1,1.2-0.3c0.4-0.2,0.7-0.6,0.9-1.1l0.4-1.2l-4.5-11.6H16l2.7,7.4l2.5-7.4L24.3,12.4L24.3,12.4z M30.4,23.9
			c-0.2,0.1-0.5,0.2-0.8,0.3s-0.6,0.1-0.9,0.1c-0.4,0-0.8-0.1-1.2-0.2s-0.7-0.3-1-0.5s-0.5-0.6-0.7-1c-0.2-0.4-0.3-0.9-0.3-1.5V7.4
			h2.9v13.2c0,0.5,0.1,0.8,0.3,1s0.4,0.3,0.7,0.3c0.3,0,0.7-0.1,1-0.3V23.9L30.4,23.9z M43.8,18.2c0,0.9-0.2,1.7-0.5,2.4
			C43,21.4,42.5,22,42,22.5c-0.6,0.5-1.2,1-2,1.3c-0.8,0.3-1.6,0.5-2.4,0.5s-1.7-0.2-2.4-0.5s-1.4-0.7-2-1.3c-0.6-0.5-1-1.2-1.3-1.9
			c-0.3-0.7-0.5-1.5-0.5-2.4c0-0.8,0.2-1.6,0.5-2.4c0.3-0.7,0.8-1.4,1.3-1.9c0.6-0.6,1.2-1,2-1.3s1.5-0.5,2.4-0.5
			c0.9,0,1.7,0.2,2.4,0.5s1.4,0.7,2,1.3c0.6,0.5,1,1.2,1.3,1.9C43.6,16.6,43.8,17.4,43.8,18.2L43.8,18.2z M40.9,18.2
			c0-0.5-0.1-1-0.3-1.4s-0.4-0.8-0.7-1.1c-0.3-0.3-0.7-0.6-1-0.7c-0.4-0.2-0.8-0.3-1.3-0.3c-0.5,0-0.9,0.1-1.3,0.3
			c-0.4,0.2-0.8,0.4-1,0.7c-0.3,0.3-0.5,0.7-0.7,1.1s-0.3,0.9-0.3,1.4s0.1,1,0.3,1.4s0.4,0.8,0.7,1.1c0.3,0.3,0.7,0.6,1,0.8
			s0.8,0.3,1.3,0.3s0.9-0.1,1.3-0.3s0.8-0.4,1-0.8c0.3-0.3,0.5-0.7,0.7-1.1S40.9,18.7,40.9,18.2z"/>
	</g>
</g>
</svg>
